<?xml version="1.0" encoding="utf-8"?>
<!-- Generator: Adobe Illustrator 19.1.0, SVG Export Plug-In . SVG Version: 6.00 Build 0)  -->
<!DOCTYPE svg PUBLIC "-//W3C//DTD SVG 1.1//EN" "http://www.w3.org/Graphics/SVG/1.1/DTD/svg11.dtd">
<svg version="1.1" id="Layer_1" xmlns="http://www.w3.org/2000/svg" xmlns:xlink="http://www.w3.org/1999/xlink" x="0px" y="0px"
	 viewBox="0 0 150.4 155.9" enable-background="new 0 0 150.4 155.9" xml:space="preserve">
<g>
	<g>
		<g>
			<path fill="#FFFFFF" stroke="#FFFFFF" stroke-width="3" stroke-miterlimit="10" d="M84.1,78.5l49.2-49.2l2-2
				c-13.5-14-32.3-22.7-53.2-22.7C41.4,4.6,8.3,37.8,8.3,78.5c0,40.7,33.1,73.8,73.8,73.8c20.9,0,39.7-8.7,53.1-22.6l-1.9-1.9
				L84.1,78.5z M82.1,149.5c-39.2,0-71.1-31.9-71.1-71c0-39.2,31.9-71,71.1-71c19.1,0,36.4,7.6,49.2,19.8L81.5,77v-52h-2.8v106.7
				h2.8V79.8l49.8,49.8C118.5,141.9,101.2,149.5,82.1,149.5z"/>
		</g>
	</g>
</g>
</svg>
